<?xml version="1.0" encoding="UTF-8"?>
<svg width="24px" height="24px" viewBox="0 0 24 24" version="1.1" xmlns="http://www.w3.org/2000/svg" xmlns:xlink="http://www.w3.org/1999/xlink">
    <title>tiktok</title>
    <g id="页面-1" stroke="none" stroke-width="1" fill="none" fill-rule="evenodd">
        <g id="tiktok" fill="#000000" fill-rule="nonzero">
            <rect id="矩形" opacity="0" x="0" y="0" width="24" height="24"></rect>
            <path d="M12.5299934,0.0199997578 C13.839977,0 15.1399608,0.00999986719 16.4399445,0 C16.5199435,1.52998087 17.0699366,3.08996137 18.1899226,4.16994788 C19.3099086,5.279934 20.8898889,5.78992762 22.4298696,5.95992551 L22.4298696,9.98987512 C20.9898876,9.93987574 19.5399058,9.63987949 18.2299221,9.01988726 C17.6599293,8.7598905 17.1299359,8.42989463 16.6099424,8.08989888 C16.5999425,11.0098624 16.6199423,13.9298259 16.5899426,16.8397895 C16.5099436,18.239772 16.0499494,19.6297546 15.2399595,20.7797403 C13.9299759,22.6997163 11.6600043,23.9497006 9.33003337,23.9897001 C7.90005124,24.0696991 6.47006913,23.679704 5.25008438,22.959713 C3.23010963,21.7697279 1.81012737,19.5897551 1.60012999,17.2497844 C1.58013023,16.7497906 1.57013037,16.2497969 1.59013012,15.759803 C1.77012787,13.8598267 2.71011612,12.0398495 4.17009788,10.799865 C5.83007712,9.359883 8.15004813,8.66989163 10.320021,9.07988651 C10.3400208,10.559868 10.2800215,12.0398495 10.2800215,13.519831 C9.29003388,13.199835 8.13004838,13.2898339 7.26005925,13.8898264 C6.63006713,14.2998213 6.15007313,14.9298134 5.90007626,15.6398045 C5.69007888,16.1497981 5.75007813,16.7097911 5.760078,17.2497844 C6.000075,18.8897639 7.58005526,20.2697466 9.26003426,20.1197485 C10.3800203,20.1097486 11.4500069,19.4597568 12.0299996,18.5097686 C12.2199972,18.1797728 12.4299946,17.839777 12.4399945,17.4497819 C12.5399933,15.6598043 12.4999938,13.8798265 12.5099936,12.0898489 C12.5199935,8.05989926 12.4999938,4.03994951 12.5299934,0.0199997578 Z" id="路径"></path>
        </g>
    </g>
</svg>