<svg xmlns="http://www.w3.org/2000/svg" viewBox="0 0 279.67 92.06"><defs><style>.cls-1{fill:#cfd8dc;}</style></defs><title>资源 6</title><g id="图层_2" data-name="图层 2"><g id="图层_1-2" data-name="图层 1"><path class="cls-1" d="M96.61,25.44a22.67,22.67,0,0,0-23.08,23,23.08,23.08,0,0,0,46.15,0A22.66,22.66,0,0,0,96.61,25.44Zm0,37c-7,0-13-5.75-13-13.94s6-13.94,13-13.94,13,5.66,13,13.94S103.58,62.39,96.61,62.39Z"/><path class="cls-1" d="M146.39,25.44a22.68,22.68,0,0,0-23.08,23,23.08,23.08,0,0,0,46.16,0A22.67,22.67,0,0,0,146.39,25.44Zm0,37c-7,0-13-5.75-13-13.94s6-13.94,13-13.94,13,5.66,13,13.94S153.36,62.39,146.39,62.39Z"/><path class="cls-1" d="M207.59,30.59h-.36a15.92,15.92,0,0,0-12.11-5.15c-11.5,0-22,10.11-22,23.09s10.54,22.91,22,22.91a15.64,15.64,0,0,0,12.11-5.22h.36v3.3c0,8.81-4.7,13.49-12.28,13.49-6.19,0-10-4.42-11.59-8.16l-8.79,3.66a21.9,21.9,0,0,0,20.39,13.55c11.84,0,21.86-6.94,21.86-23.93V26.84h-9.59ZM196,62.39c-7,0-12.81-5.84-12.81-13.86s5.84-14,12.81-14,12.28,5.92,12.28,14S202.9,62.39,196,62.39Z"/><rect class="cls-1" x="223.15" y="2.62" width="9.85" height="67.42"/><path class="cls-1" d="M278.63,40.07c-1.91-5.14-7.75-14.64-19.69-14.64s-21.7,9.33-21.7,23c0,12.9,9.76,23,22.83,23a22.91,22.91,0,0,0,19.17-10.19L271.4,56c-2.62,3.84-6.19,6.37-11.33,6.37s-8.8-2.36-11.15-7l30.75-12.74Zm-31.37,7.67a12.62,12.62,0,0,1,12-13.41c4,0,7.41,2,8.54,4.88Z"/><path class="cls-1" d="M36.23,32.7v9.76H59.56c-.72,5.39-2.53,9.33-5.29,12.09-3.41,3.4-8.72,7.14-18,7.14a25.62,25.62,0,0,1-25.62-26,25.62,25.62,0,0,1,25.62-26,24.87,24.87,0,0,1,17.6,7l6.89-6.89A34,34,0,0,0,36.24,0C16.55,0,0,16,0,35.72S16.55,71.44,36.24,71.44c10.62,0,18.64-3.48,24.91-10,6.46-6.45,8.46-15.5,8.46-22.83a32.5,32.5,0,0,0-.49-5.89Z"/></g></g></svg>