<svg xmlns="http://www.w3.org/2000/svg" viewBox="0 0 341.3 82.07"><defs><style>.cls-1{fill:#cfd8dc;}</style></defs><title>资源 5</title><g id="图层_2" data-name="图层 2"><g id="图层_1-2" data-name="图层 1"><path class="cls-1" d="M104.41,11.47h0c-5.11,2.14-10.73,8.19-12.5,15.77-2.25,9.62,7.1,13.68,7.87,12.35.9-1.57-1.68-2.1-2.21-7.09-.68-6.44,2.31-13.64,6.08-16.79.7-.59.67.23.67,1.74,0,2.7-.15,27-.15,32,0,6.85-.28,9-.79,11.15s-1.34,3.63-.72,4.19,3.69-.87,5.43-3.28c2.07-2.9,2.8-6.38,2.93-10.16.16-4.56.15-11.79.16-15.92,0-3.78.06-14.86-.07-21.52C111.08,12.29,106.55,10.57,104.41,11.47Z"/><path class="cls-1" d="M340.18,47.45h0c-.74,0-1.08.77-1.36,2-1,4.48-2,5.49-3.3,5.49-1.48,0-2.8-2.22-3.14-6.65a150.26,150.26,0,0,1,.12-16.29c.07-1.32-.29-2.61-3.81-3.89-1.51-.55-3.71-1.36-4.81,1.28a65.46,65.46,0,0,0-4.59,15.82c0,.13-.17.15-.2-.14a123,123,0,0,1-.64-12.81,3.82,3.82,0,0,0-1.9-3.66c-1-.65-4.16-1.81-5.28-.44-1,1.12-2.11,4.13-3.28,7.7-1,2.9-1.62,4.87-1.62,4.87s0-7.83,0-10.8a1.52,1.52,0,0,0-1-1.56,21.06,21.06,0,0,0-4-.81c-1.08,0-1.34.6-1.34,1.48,0,.11-.17,10.3-.17,17.43v1c-.59,3.27-2.52,7.72-4.62,7.72s-3.1-1.86-3.1-10.36c0-5,.15-7.11.23-10.69,0-2.07.12-3.65.12-4,0-1.11-1.93-1.66-2.82-1.87a8.73,8.73,0,0,0-2.27-.25A1.42,1.42,0,0,0,286,29.45v1.21a8.14,8.14,0,0,0-4.05-3.29c-3.19-.95-6.5-.11-9,3.39a20.63,20.63,0,0,0-3.66,10.46,31.32,31.32,0,0,0,.38,9.51c-.74,3.21-2.11,4.52-3.62,4.52-2.19,0-3.77-3.57-3.59-9.74.12-4.07.93-6.92,1.82-11a3.57,3.57,0,0,0-.7-3.56c-.71-.81-2.21-1.22-4.38-.71-1.55.36-3.76.75-5.78,1.05a10.61,10.61,0,0,0,.23-1.34c.52-4.5-4.36-4.14-5.92-2.7a5.55,5.55,0,0,0-1.81,3.69,4.34,4.34,0,0,0,2,4.24,43.64,43.64,0,0,1-4.62,11.5,48.1,48.1,0,0,1-2.88,4.52c0-.53,0-1,0-1.57,0-7.43.08-13.28.12-15.39s.13-3.61.12-4c0-.81-.48-1.11-1.46-1.5a10.71,10.71,0,0,0-2.95-.66c-1.35-.1-2.15.61-2.13,1.45v1.14A8.16,8.16,0,0,0,230,27.37c-3.18-.95-6.5-.11-9,3.39a22.39,22.39,0,0,0-3.66,10.43,32.1,32.1,0,0,0,.19,9c-.51,2.5-2,5.11-3.61,5.11-2.1,0-3.29-1.86-3.29-10.35,0-5,.14-7.12.22-10.7,0-2.07.12-3.65.12-4,0-1.1-1.93-1.66-2.81-1.87a8.57,8.57,0,0,0-2.35-.25,1.52,1.52,0,0,0-1.38,1.34v1.25a8.2,8.2,0,0,0-4.06-3.29c-3.18-.95-6.48-.1-9,3.39-1.64,2.28-3,4.8-3.66,10.38a34.86,34.86,0,0,0-.27,4.54c-.66,4-3.55,8.63-5.92,8.63-1.39,0-2.71-2.69-2.71-8.42,0-7.63.47-18.5.55-19.55l3.58-.06c1.49,0,2.84,0,4.83-.08,1-.05,2-3.63.93-4.07a35.88,35.88,0,0,0-5.07-.41c-1.1,0-4.16-.25-4.16-.25s.27-7.21.34-8-.77-1-1.24-1.16a17.26,17.26,0,0,0-3.39-1c-1.68-.35-2.44,0-2.59,1.41-.22,2.15-.34,8.45-.34,8.45-1.23,0-5.44-.25-6.67-.25s-2.38,4.93-.8,5c1.82.07,5,.13,7.1.19,0,0-.09,11.05-.09,14.46v1.05a16.68,16.68,0,0,1-5.24,9.3c.88-4-.91-7-4.13-9.53-1.19-.93-3.54-2.7-6.16-4.65a15.72,15.72,0,0,0,2.87-4.51c.95-2.13,1-4.57-1.35-5.11-3.87-.89-7.06,1.95-8,5a5.77,5.77,0,0,0,1.1,5.91l.33.4c-.87,1.69-2.07,4-3.09,5.71-2.82,4.89-4.95,8.75-6.56,8.75-1.29,0-1.27-3.92-1.27-7.59,0-3.17.23-7.93.42-12.85.06-1.63-.76-2.56-2.12-3.4a9.53,9.53,0,0,0-3.63-1.52c-1.53,0-6,.21-10.15,12.32-.53,1.52-1.56,4.3-1.56,4.3l.09-14.55a1,1,0,0,0-.6-.9,10.4,10.4,0,0,0-4.26-1.17q-1.2,0-1.2,1.11l-.15,22.78a33.49,33.49,0,0,0,.22,4.63,4.79,4.79,0,0,0,.79,2,2.21,2.21,0,0,0,1.39.89c.6.13,3.92.55,4.09-.72a47.39,47.39,0,0,1,2-9.3c2.72-9.54,6.25-14.2,7.92-15.86.29-.29.62-.3.6.17-.07,2.09-.32,7.32-.48,11.77-.45,11.89,1.71,14.1,4.8,14.1,2.37,0,5.7-2.35,9.28-8.3,2.22-3.71,4.39-7.35,5.94-10,1.08,1,2.3,2.09,3.52,3.24,2.82,2.68,3.75,5.22,3.13,7.64-.47,1.85-2.24,3.75-5.39,1.9-.92-.54-1.32-1-2.24-1.57a1.61,1.61,0,0,0-1.71-.08,6.09,6.09,0,0,0-2.24,3.43c-.37,1.36,1,2.08,2.41,2.71a18.9,18.9,0,0,0,5.51,1.09c6.51.22,11.72-3.14,15.35-11.81.65,7.48,3.42,11.72,8.23,11.72,3.21,0,6.43-4.15,7.84-8.24a14.36,14.36,0,0,0,1.77,4.34c3.71,5.87,10.89,4.61,14.5-.38a9.4,9.4,0,0,0,1.28-2.09,6.79,6.79,0,0,0,6.49,6.35c2.43,0,4.94-1.15,6.69-5.11a12.12,12.12,0,0,0,.68,1.23c3.7,5.87,10.89,4.61,14.5-.38.17-.23.31-.44.44-.63l.11,3.09-3.32,3c-5.57,5.1-9.79,9-10.11,13.48-.39,5.74,4.27,7.88,7.79,8.16a9.93,9.93,0,0,0,8.93-4.67c1.73-2.55,2.87-8,2.78-13.45,0-2.17-.08-4.93-.13-7.88a62.83,62.83,0,0,0,6.19-8.5,64,64,0,0,0,5.79-12.4s2.06,0,4.25-.13c.71,0,.91.1.78.62s-2.78,10.72-.39,17.44c1.64,4.61,5.32,6.09,7.51,6.09,2.56,0,5-1.94,6.32-4.8a7.9,7.9,0,0,0,.5.91c3.7,5.87,10.86,4.6,14.49-.38a15.11,15.11,0,0,0,1.29-2.09,7,7,0,0,0,6.73,6.37c2.26,0,4.41-.92,6.15-5a18.72,18.72,0,0,0,.36,3.76c.11.29.76.65,1.22.82a9.41,9.41,0,0,0,5,.25c.54-.11,1-.55,1-1.67.15-2.93,0-7.87.95-11.54,1.49-6.16,2.89-8.55,3.55-9.73.37-.66.79-.77.8-.07,0,1.42.1,5.59.68,11.18.43,4.12,1,6.55,1.43,7.32a4,4,0,0,0,4,2.31c.8,0,2.47-.22,2.32-1.62a44,44,0,0,1,1.53-11A53.33,53.33,0,0,1,326,35.32c.22-.48.32-.1.31,0-.12,2.73-.39,11.65.72,16.53,1.5,6.61,5.86,7.35,7.38,7.35,3.24,0,5.89-2.46,6.79-9C341.45,48.66,341.13,47.45,340.18,47.45ZM202.43,51.83c-2,3.77-5.8,5-7.49-.48-1.23-3.93-.81-9.3-.3-12.19.75-4.3,2.64-7.35,5.6-7.06s4.5,4.19,4.12,11.34A21.31,21.31,0,0,1,202.43,51.83ZM234,43.49a23.29,23.29,0,0,1-1.93,8.34c-1.89,3.8-5.85,5-7.49-.48a27.57,27.57,0,0,1-.3-11.63c.72-3.95,2.47-7.62,5.6-7.62S234.42,35.44,234,43.49Zm.78,22.12c0,5.92-1,11.11-3,12.61-2.83,2.14-6.64.54-5.85-3.78.7-3.82,4-7.72,8.83-12.49C234.78,62,234.79,63,234.77,65.61Zm51.16-22.09A21,21,0,0,1,284,51.83c-1.89,3.8-5.82,5-7.49-.48-.91-3-.95-8-.3-12.11s2.53-7.43,5.6-7.14,4.46,4.19,4.13,11.42Z"/><path class="cls-1" d="M38.32,18.66A19.67,19.67,0,1,0,58,38.33,19.65,19.65,0,0,0,38.32,18.66Zm0,32.45A12.78,12.78,0,1,1,51.1,38.33,12.8,12.8,0,0,1,38.32,51.11Z"/><path class="cls-1" d="M58.79,13.27a4.6,4.6,0,1,0,4.59,4.6A4.59,4.59,0,0,0,58.79,13.27Z"/><path class="cls-1" d="M70.22,6.44C65.72,1.94,60.29.55,54.15.25,48.86,0,43.61,0,38.33,0S27.79,0,22.51.25C16.37.55,10.92,2,6.44,6.44S.55,16.37.25,22.51C0,27.8,0,33.05,0,38.33S0,48.87.25,54.15C.55,60.29,2,65.73,6.44,70.22s9.93,5.89,16.07,6.19c5.29.29,10.54.24,15.82.24s10.54,0,15.82-.24c6.14-.3,11.58-1.7,16.07-6.19s5.89-9.93,6.19-16.07c.3-5.28.24-10.53.24-15.82s0-10.54-.24-15.82C76.11,16.37,74.71,10.92,70.22,6.44Zm-2,54.5a13.14,13.14,0,0,1-7.29,7.29c-5,2-17,1.55-22.61,1.55s-17.58.45-22.62-1.54a12.15,12.15,0,0,1-4.39-2.9A12.33,12.33,0,0,1,8.41,61c-2-5.05-1.54-17-1.54-22.62S6.42,20.75,8.41,15.71a12.15,12.15,0,0,1,2.9-4.39,12.24,12.24,0,0,1,4.39-2.9c5-2,17-1.54,22.62-1.54S55.9,6.43,60.94,8.42a12.24,12.24,0,0,1,4.39,2.9,12.24,12.24,0,0,1,2.9,4.39c2,5,1.54,17,1.54,22.62S70.22,55.9,68.22,60.94Z"/></g></g></svg>