<svg xmlns="http://www.w3.org/2000/svg" viewBox="0 0 316.16 63.7"><defs><style>.cls-1{fill:#cfd8dc;}</style></defs><title>资源 2</title><g id="图层_2" data-name="图层 2"><g id="图层_1-2" data-name="图层 1"><path class="cls-1" d="M68.73,0c-4.18,0-8.34,1.87-12.2,5.23a51.82,51.82,0,0,0-7.26,8.2,52.3,52.3,0,0,0-7.84-8.22A21,21,0,0,0,27.63,0C19.77,0,12.92,5.12,8.17,12.44,2.81,20.69,0,31.38,0,41.64,0,47.28,1.11,52.23,3.38,56c2.78,4.63,7.27,7.7,14.36,7.7,6,0,10.52-2.69,15.84-9.77,3-4,4.57-6.5,10.64-17.26l3-5.35c.26-.46.49-.84.74-1.29.25.41.48.76.74,1.19l8.6,14.36C60.21,50.42,64,55.8,67.18,58.83A16.28,16.28,0,0,0,79.42,63.7a14.39,14.39,0,0,0,13-7.26c2.17-3.75,3.44-8.5,3.44-15,0-10.87-2.72-21.41-8.33-29.77C82.45,4.07,75.76,0,68.73,0ZM39,28.76c-3,4.65-7.52,12.06-11.34,17.34-4.76,6.58-7.23,7.25-9.93,7.25a6.32,6.32,0,0,1-5.53-3.17A16,16,0,0,1,10.36,42c0-8.88,2.52-18.12,6.63-24.33,2.91-4.39,6.38-7.26,10.47-7.26,5.06,0,8.23,3.16,10.69,5.77a62,62,0,0,1,4.93,6.32ZM79.42,53.35c-2.32,0-4.11-.92-6.65-4-2-2.4-5.37-7.5-11.32-17.41L59,27.82c-1.75-2.91-3.41-5.53-5-7.89.27-.42.55-.93.82-1.33,4.48-6.66,8.47-10.39,13.42-10.39,4.58,0,8.74,3,12,8,4.53,7,6.58,16.77,6.58,25.58C86.76,48,85.3,53.35,79.42,53.35Z"/><path class="cls-1" d="M211.29,16.37c-13.22,0-22.1,10-22.1,23.76,0,13.09,8.53,23.53,22.84,23.53a27,27,0,0,0,19-7.1l-5.19-6.36a17.85,17.85,0,0,1-13.45,5.24c-7.61,0-12.32-4.79-13.5-11.9h33.18V40.86C232.06,26.25,224.29,16.37,211.29,16.37Zm-12.41,20c1-6.53,5.23-11.8,12.24-11.8,7.18,0,11.06,5.07,11.55,11.8Z"/><path class="cls-1" d="M306.9,23.25c-3.3-4.39-8.18-6.88-14.41-6.88-12.58,0-21,10.11-21,23.63s8.2,23.66,20.46,23.66c7.63,0,12.34-3.68,14.93-7.4v6.32h9.26V17.46H306.9Zm-.17,23.54A13.29,13.29,0,0,1,294,55.09c-8.1,0-12.85-6-12.85-15.09,0-9.33,5.16-15.06,13.24-15.06a12.73,12.73,0,0,1,12.33,8.31Z"/><polygon class="cls-1" points="148.39 38.87 128.02 2.01 116.04 2.01 116.04 62.58 125.81 62.58 125.81 16.16 143.68 48.3 152.85 48.3 170.72 16.16 170.72 62.58 180.49 62.58 180.49 2.01 168.77 2.01 148.39 38.87"/><path class="cls-1" d="M253.34,4.22h-9.43V17.46h-9v8h9V46.87q0,16.71,15.27,16.7A28.08,28.08,0,0,0,267,62.49V54.57a31.62,31.62,0,0,1-6,.57c-5.44,0-7.66-2.46-7.66-9.39V25.46H267v-8H253.34Z"/></g></g></svg>