<svg xmlns="http://www.w3.org/2000/svg" viewBox="0 0 327.62 86.54"><defs><style>.cls-1{fill:#cfd8dc;}</style></defs><title>资源 4</title><g id="图层_2" data-name="图层 2"><g id="图层_1-2" data-name="图层 1"><path class="cls-1" d="M143.75,35.28a6,6,0,1,0-6-6A6,6,0,0,0,143.75,35.28Z"/><rect class="cls-1" x="137.74" y="39.53" width="12.17" height="34.87"/><polygon class="cls-1" points="198.99 23.19 198.99 33.8 211.48 33.8 211.48 74.4 223.9 74.4 223.9 33.8 233.98 33.8 237.55 23.19 198.99 23.19"/><path class="cls-1" d="M257.94,32.74a20.94,20.94,0,1,0,21.22,20.94h0A21.08,21.08,0,0,0,257.94,32.74Zm10.41,20.95a10.41,10.41,0,1,1-10.41-10.42,10.4,10.4,0,0,1,10.41,10.42h0Z"/><polygon class="cls-1" points="193.69 34.98 179.46 34.98 167.19 47.26 167.19 23.23 155.1 23.23 155.06 74.4 167.28 74.4 167.28 61.07 171.08 57.63 182.93 74.4 195.98 74.4 178.82 49.87 193.69 34.98"/><polygon class="cls-1" points="310.45 49.87 325.33 34.98 311.1 34.98 298.83 47.26 298.83 23.23 286.74 23.23 286.7 74.4 298.91 74.4 298.91 61.07 302.73 57.63 314.58 74.4 327.62 74.4 310.45 49.87"/><polygon class="cls-1" points="96.81 33.8 109.3 33.8 109.3 74.4 121.72 74.4 121.72 33.8 131.8 33.8 135.37 23.19 96.81 23.19 96.81 33.8"/><path class="cls-1" d="M55.29,0H39.93V59.14A12.29,12.29,0,1,1,27.65,46.86a12.5,12.5,0,0,1,4.32.78V31.87a27,27,0,0,0-4.44-.36A27.52,27.52,0,1,0,55.07,59V29.25a35.64,35.64,0,0,0,20.71,6.58h.1V20.58A20.58,20.58,0,0,1,55.29,0Z"/></g></g></svg>