<svg xmlns="http://www.w3.org/2000/svg" viewBox="0 0 393.56 77.32"><defs><style>.cls-1{fill:#cfd8dc;}</style></defs><title>资源 1</title><g id="图层_2" data-name="图层 2"><g id="图层_1-2" data-name="图层 1"><path class="cls-1" d="M66,11.33A38.66,38.66,0,0,0,5.91,59.21l.92,1.46L2.92,74.93,17.55,71.1l1.42.83a38.58,38.58,0,0,0,19.67,5.39h0A38.66,38.66,0,0,0,66,11.33ZM61.41,55.26c-1,2.71-5.71,5.33-7.84,5.52s-4.13,1-14-2.91C27.81,53.22,20.35,41.11,19.77,40.33S15,34,15,28.31a13.05,13.05,0,0,1,4.07-9.69,4.29,4.29,0,0,1,3.1-1.45c.78,0,1.55,0,2.23,0s1.74.08,2.61,2c1,2.3,3.3,8.05,3.59,8.63a2.14,2.14,0,0,1,.09,2,7.8,7.8,0,0,1-1.16,1.93c-.58.68-1.22,1.52-1.74,2s-1.19,1.21-.51,2.37a35.2,35.2,0,0,0,6.46,8A31.62,31.62,0,0,0,43.11,50c1.16.59,1.84.49,2.52-.29s2.9-3.39,3.68-4.55,1.55-1,2.61-.58,6.78,3.2,7.94,3.78,1.94.87,2.23,1.35S62.38,52.54,61.41,55.26Z"/><path class="cls-1" d="M103.45,20.85h9.23l5.81,29.8h.35L125,24.74h10.23L141,50.65h.35l5.93-29.8h9.12l-9.24,40.31h-11L129.93,35.6h-.35l-6.33,25.56h-11Z"/><path class="cls-1" d="M180,29.22a15.78,15.78,0,0,1,4.9.66,7.49,7.49,0,0,1,3.23,2,7.78,7.78,0,0,1,1.74,3.28,17.66,17.66,0,0,1,.52,4.56V61.16H182V41.94c0-2.13-.35-3.64-1-4.53s-2.06-1.34-4.07-1.34a8.39,8.39,0,0,0-4.3,1,5.59,5.59,0,0,0-2.38,3.54V61.16h-8.42V17h8.42V33.63a7.93,7.93,0,0,1,3.8-3.31A14.91,14.91,0,0,1,180,29.22Z"/><path class="cls-1" d="M211.82,29.28a28.46,28.46,0,0,1,6.65.66,11.74,11.74,0,0,1,4.36,1.95,7.3,7.3,0,0,1,2.38,3.16,12.31,12.31,0,0,1,.73,4.39V61.16h-7.55l-.82-3.66a7.86,7.86,0,0,1-3.54,3,14.68,14.68,0,0,1-6.45,1.25q-5.28,0-8-2.35t-2.73-7.23q0-5.46,3.28-7.67t9.61-2.21h7.78v-.81a9.16,9.16,0,0,0-.26-2.38,3,3,0,0,0-1-1.6,5.2,5.2,0,0,0-2-.9,16,16,0,0,0-3.37-.29q-1.68,0-3.36.15c-1.13.09-2.23.24-3.31.43V29.74c1.2-.16,2.49-.27,3.89-.35S210.7,29.28,211.82,29.28Zm-2.09,26a10.93,10.93,0,0,0,4.94-1,6,6,0,0,0,2.84-2.65V48H211a9.91,9.91,0,0,0-4.5.75c-.91.51-1.37,1.55-1.37,3.14a3,3,0,0,0,1.08,2.64A6.07,6.07,0,0,0,209.73,55.29Z"/><path class="cls-1" d="M243.65,36.42v14a13.84,13.84,0,0,0,.15,2.26,2.82,2.82,0,0,0,.55,1.37,2.19,2.19,0,0,0,1.1.69,6.44,6.44,0,0,0,1.8.21,10.84,10.84,0,0,0,2.5-.24v6.51c-.62.07-1.28.14-2,.2s-1.39.09-2.09.09a22,22,0,0,1-4.9-.47,6.14,6.14,0,0,1-5-4.82,19.73,19.73,0,0,1-.55-5.11V36.42h-4.12V29.8h4.12V22.36h8.42V29.8h6.51v6.62Z"/><path class="cls-1" d="M264,61.51c-1.82,0-3.58-.09-5.29-.26a41.59,41.59,0,0,1-4.64-.73v-7a31.65,31.65,0,0,0,4.79,1.08,32,32,0,0,0,4.67.38,9.31,9.31,0,0,0,4-.64,2.55,2.55,0,0,0,1.25-2.5,4.77,4.77,0,0,0-.23-1.57,2.4,2.4,0,0,0-.9-1.1,7.15,7.15,0,0,0-1.83-.84c-.77-.26-1.8-.54-3.08-.85a22.91,22.91,0,0,1-4.12-1.3A7.64,7.64,0,0,1,256,44.4,5.53,5.53,0,0,1,254.74,42a14.63,14.63,0,0,1-.35-3.4,11.09,11.09,0,0,1,.67-4,6.85,6.85,0,0,1,2.18-2.94,10.9,10.9,0,0,1,3.89-1.83,23,23,0,0,1,5.81-.63,39.44,39.44,0,0,1,5,.29,17.41,17.41,0,0,1,3.63.75l-.35,6.45c-.43-.12-.95-.24-1.57-.38s-1.29-.26-2-.38-1.46-.21-2.21-.29-1.48-.11-2.18-.11a8.13,8.13,0,0,0-3.92.64,2.44,2.44,0,0,0-1,2.26,3,3,0,0,0,.2,1.22,1.74,1.74,0,0,0,.84.81,9.41,9.41,0,0,0,1.77.7c.76.23,1.75.5,3,.81a23.43,23.43,0,0,1,4.24,1.43A8.21,8.21,0,0,1,275,45.28a5.75,5.75,0,0,1,1.37,2.61,15.74,15.74,0,0,1,.38,3.69,10.93,10.93,0,0,1-.88,4.67,7.46,7.46,0,0,1-2.49,3,10.77,10.77,0,0,1-4,1.69A25.9,25.9,0,0,1,264,61.51Z"/><path class="cls-1" d="M308.82,51.17H292.44l-3.49,10h-9.17l15-40.31h11.85l14.92,40.31h-9.35Zm-2.56-7.32L301,28.58h-.69L295,43.85Z"/><path class="cls-1" d="M343.84,29.22a14.69,14.69,0,0,1,6.24,1.13,9,9,0,0,1,3.8,3.25,13.33,13.33,0,0,1,1.92,5.14,39.56,39.56,0,0,1,.53,6.74,36.26,36.26,0,0,1-.53,6.33A14.06,14.06,0,0,1,353.88,57a9.76,9.76,0,0,1-3.8,3.48,13.33,13.33,0,0,1-6.24,1.28,13,13,0,0,1-6.42-1.25,7.23,7.23,0,0,1-3.05-3.34V72.78H326v-43h8.42v3.77a8.09,8.09,0,0,1,3.14-3.05A12.56,12.56,0,0,1,343.84,29.22Zm-2.68,26.13a6.69,6.69,0,0,0,3.46-.78,5.23,5.23,0,0,0,2-2.12,8.89,8.89,0,0,0,.91-3.14,35.62,35.62,0,0,0,.2-3.83,32.71,32.71,0,0,0-.23-4,9.67,9.67,0,0,0-.93-3.17,5.15,5.15,0,0,0-2-2.08,6.63,6.63,0,0,0-3.43-.76,8.13,8.13,0,0,0-3.54.67,5.38,5.38,0,0,0-2.23,1.94,8.29,8.29,0,0,0-1.17,3.14,25.6,25.6,0,0,0-.31,4.24,24.23,24.23,0,0,0,.31,4.09,8.27,8.27,0,0,0,1.17,3.11,5.69,5.69,0,0,0,2.23,2A8,8,0,0,0,341.16,55.35Z"/><path class="cls-1" d="M381.07,29.22a14.66,14.66,0,0,1,6.24,1.13,9,9,0,0,1,3.81,3.25A13.49,13.49,0,0,1,393,38.74a39.56,39.56,0,0,1,.53,6.74,36.26,36.26,0,0,1-.53,6.33A14.23,14.23,0,0,1,391.12,57a9.86,9.86,0,0,1-3.81,3.48,13.3,13.3,0,0,1-6.24,1.28,13,13,0,0,1-6.42-1.25,7.23,7.23,0,0,1-3-3.34V72.78h-8.42v-43h8.42v3.77a8.09,8.09,0,0,1,3.14-3.05A12.56,12.56,0,0,1,381.07,29.22ZM378.4,55.35a6.68,6.68,0,0,0,3.45-.78,5.23,5.23,0,0,0,2-2.12,8.89,8.89,0,0,0,.91-3.14,35.62,35.62,0,0,0,.2-3.83,32.71,32.71,0,0,0-.23-4,9.67,9.67,0,0,0-.93-3.17,5.15,5.15,0,0,0-2-2.08,6.62,6.62,0,0,0-3.42-.76,8.15,8.15,0,0,0-3.55.67,5.38,5.38,0,0,0-2.23,1.94,8.12,8.12,0,0,0-1.16,3.14,24.49,24.49,0,0,0-.32,4.24,23.18,23.18,0,0,0,.32,4.09,8.1,8.1,0,0,0,1.16,3.11,5.69,5.69,0,0,0,2.23,2A8,8,0,0,0,378.4,55.35Z"/></g></g></svg>