<svg xmlns="http://www.w3.org/2000/svg" viewBox="0 0 291.7 65.24"><defs><style>.cls-1{fill:#cfd8dc;}</style></defs><title>资源 3</title><g id="图层_2" data-name="图层 2"><g id="图层_1-2" data-name="图层 1"><path class="cls-1" d="M82.85,2C75.62,0,46.53,0,46.53,0S17.43.06,10.21,2A11.73,11.73,0,0,0,2,10.28C-.22,23.12-1.07,42.69,2,55a11.7,11.7,0,0,0,8.25,8.24c7.22,2,36.32,2,36.32,2s29.09,0,36.32-2A11.67,11.67,0,0,0,91.15,55c2.31-12.86,3-32.42-.06-44.8A11.7,11.7,0,0,0,82.85,2ZM37.27,46.6v-28l24.13,14Z"/><path class="cls-1" d="M150.12,21.54a12.47,12.47,0,0,0-7.23-1.86,13.69,13.69,0,0,0-7.41,1.86,10.25,10.25,0,0,0-4.18,5.79A33.93,33.93,0,0,0,130,37.9v5.92a37.87,37.87,0,0,0,1.14,10.45,10.18,10.18,0,0,0,3.94,5.8,13.38,13.38,0,0,0,7.59,1.79A13.73,13.73,0,0,0,150.12,60a10.55,10.55,0,0,0,4-5.8,35.2,35.2,0,0,0,1.25-10.45V37.85a35.71,35.71,0,0,0-1.25-10.52A10.79,10.79,0,0,0,150.12,21.54Zm-4,25.62a19.38,19.38,0,0,1-.77,6.52,2.78,2.78,0,0,1-2.69,2,2.68,2.68,0,0,1-2.69-2,21.12,21.12,0,0,1-.72-6.52V34.44a18.63,18.63,0,0,1,.78-6.39,2.68,2.68,0,0,1,2.63-2,2.76,2.76,0,0,1,2.69,2,18.7,18.7,0,0,1,.77,6.39Z"/><path class="cls-1" d="M123.23,5.41S119,23.79,117.38,33.25h-.24c-1.46-8.91-5.74-27.84-5.74-27.84h-9.14l10.46,37.75h.06v18h9V43.1L132.37,5.41Z"/><path class="cls-1" d="M276.35,43.88H291.7v-7a37.6,37.6,0,0,0-1-10.1,9.32,9.32,0,0,0-3.58-5.37c-1.67-1.14-4.06-1.74-7.23-1.74-10.49,0-12.28,7.47-12.48,17.63v7.23c0,5.91.95,10.33,2.74,13.14s5,4.24,9.5,4.24c3.77,0,6.63-1,8.73-2.81s3.1-4.66,3.1-8.42a9.55,9.55,0,0,0-.06-1.43l-7.94-.48a13.65,13.65,0,0,1-.84,5.31,3.27,3.27,0,0,1-5.08.72,5.93,5.93,0,0,1-1-2.87L276.35,46V43.88Zm0-8.36s.06-4.66.24-6a5.71,5.71,0,0,1,1-2.81,2.82,2.82,0,0,1,2.15-.89,2.75,2.75,0,0,1,2.15.83,5.52,5.52,0,0,1,1,2.87c.18,1.38.24,8.9.24,6v2.92h-6.69Z"/><path class="cls-1" d="M175.86,52.84a4.65,4.65,0,0,1-1.61,1.85c-1.19.82-3.39,1.24-4.24-.42a8.82,8.82,0,0,1-.6-3.88V20.46h-9.2V50.93c.07,5,.86,11,7.89,11,3.88,0,6.81-1.91,8.78-5.67h.18l.78,5H185V20.46h-9.14Z"/><polygon class="cls-1" points="209.92 5.41 182.73 5.41 182.73 12.81 191.88 12.81 191.88 61.26 200.84 61.26 200.84 12.81 209.92 12.81 209.92 5.41"/><path class="cls-1" d="M259.8,21.36a7.31,7.31,0,0,0-5.14-1.74,8.46,8.46,0,0,0-4.72,1.44,9.77,9.77,0,0,0-3.4,3.76h-.06V3.32h-8.84V61.2h7.58l1-3.88h.18a8.33,8.33,0,0,0,3.16,3.29,9.81,9.81,0,0,0,4.72,1.19,7.27,7.27,0,0,0,6.87-4.3c1.44-2.87,2.21-7.35,2.21-13.38V37.67a54.71,54.71,0,0,0-.83-10.7A10.54,10.54,0,0,0,259.8,21.36Zm-5.74,22.28a54.19,54.19,0,0,1-.35,7,7.25,7.25,0,0,1-1.26,3.58,2.88,2.88,0,0,1-2.33,1.08,4,4,0,0,1-3.64-2.15V30a5.52,5.52,0,0,1,1.61-2.75,2.94,2.94,0,0,1,4.6,0,8.54,8.54,0,0,1,1.08,3.71c.17,1.73.29,4.18.29,7.4Z"/><path class="cls-1" d="M223,52.84a4.72,4.72,0,0,1-1.61,1.85c-1.2.82-3.4,1.24-4.25-.42a9,9,0,0,1-.59-3.88V20.46h-9.2V50.93c.07,5,.85,11,7.88,11,3.89,0,6.81-1.91,8.78-5.67h.18l.78,5h7.17V20.46H223Z"/></g></g></svg>